<svg xmlns="http://www.w3.org/2000/svg" viewBox="0 0 593.96 221.4"><defs><style>.cls-1{fill:#fff;}</style></defs><title>Logotyp vit</title><g id="Lager_2" data-name="Lager 2"><g id="Lager_1-2" data-name="Lager 1"><path class="cls-1" d="M109.18,125.13,94.33,186q-2.91,11.64-4.73,20.61a253.11,253.11,0,0,0-7.36-33.53L68.68,125.13H53.56l-18,64q-.64,2.31-4.25,17.5-1.68-9.63-4-19.38l-14.4-62.09H0l25.14,94.72H37.93L58,147.68q1.29-4.59,2.78-11.11c.3,1.38,1.28,5.08,3,11.11l20,72.17H95.81l26-94.72Z"/><path class="cls-1" d="M175.89,211.61q-.75-4.31-.76-20.52v-15.5a65.16,65.16,0,0,0-.58-10.72,18.3,18.3,0,0,0-3.62-7.92,18.77,18.77,0,0,0-8.07-5.19c-3.66-1.38-8.41-2.07-14.28-2.07A45.71,45.71,0,0,0,133,152.11,22.48,22.48,0,0,0,122.74,159a28.19,28.19,0,0,0-5.1,11.79L129,172.36c1.24-4.87,3.18-8.26,5.78-10.17s6.65-2.88,12.12-2.88q8.78,0,13.24,3.94c2.19,1.94,3.3,5.28,3.3,10,0,.42,0,1.44-.07,3q-6.66,2.32-20.74,4a85.71,85.71,0,0,0-10.34,1.75,28.65,28.65,0,0,0-8.37,3.81,19,19,0,0,0-6,6.69,18.65,18.65,0,0,0-2.3,9.21,18.23,18.23,0,0,0,6.08,14.11c4,3.68,9.85,5.53,17.38,5.53a36,36,0,0,0,12.82-2.26,43.43,43.43,0,0,0,12.44-7.75,24.56,24.56,0,0,0,2.32,8.46h12.15A25.12,25.12,0,0,1,175.89,211.61Zm-12.51-21.93q0,7.68-1.87,11.63a18.23,18.23,0,0,1-7.69,8,24,24,0,0,1-11.95,2.93c-4.54,0-8-1-10.31-3.1a10.28,10.28,0,0,1-1.91-13.27,10.18,10.18,0,0,1,4.59-3.78,44.64,44.64,0,0,1,10.14-2.33q12.68-1.8,19-4.39Z"/><path class="cls-1" d="M331.31,185.41q0-17-8.72-26.36t-22.48-9.36q-14.22,0-23.12,9.55t-8.93,26.88q0,16.74,8.82,26t23.88,9.27q11.94,0,19.64-5.82a27.79,27.79,0,0,0,8.6-10.92l-10.09-6.9q-2.66,7.35-7.18,10.71a17.71,17.71,0,0,1-10.91,3.37,19.08,19.08,0,0,1-14.35-6q-5.75-6-6.38-17.32h51.16C331.28,187.13,331.31,186.1,331.31,185.41ZM280.72,179c.4-6,2.4-10.77,6-14.34a18.43,18.43,0,0,1,13.47-5.37A17.84,17.84,0,0,1,314.65,166q3.62,4.33,4.38,13Z"/><path class="cls-1" d="M159.66,68.56q0-17-8.73-26.36t-22.47-9.36q-14.22,0-23.12,9.56T96.41,69.27q0,16.74,8.82,26t23.88,9.27q11.94,0,19.63-5.82a27.72,27.72,0,0,0,8.61-10.92l-10.09-6.9c-1.78,4.9-4.16,8.48-7.18,10.71A17.71,17.71,0,0,1,129.17,95a19.07,19.07,0,0,1-14.35-6q-5.75-6-6.39-17.32H159.6C159.63,70.28,159.66,69.26,159.66,68.56ZM109.07,62.1c.4-6,2.4-10.77,6.05-14.34a18.42,18.42,0,0,1,13.47-5.36A17.82,17.82,0,0,1,143,49.11c2.42,2.89,3.87,7.22,4.39,13Z"/><path class="cls-1" d="M296.82,68.56q0-17-8.72-26.36t-22.48-9.36q-14.22,0-23.12,9.56t-8.93,26.87q0,16.74,8.82,26t23.88,9.27q11.94,0,19.64-5.82a27.79,27.79,0,0,0,8.6-10.92l-10.09-6.9c-1.77,4.9-4.16,8.48-7.18,10.71A17.71,17.71,0,0,1,266.33,95,19.08,19.08,0,0,1,252,89q-5.74-6-6.38-17.32h51.16C296.8,70.28,296.82,69.26,296.82,68.56ZM246.23,62.1c.4-6,2.4-10.77,6.05-14.34a18.42,18.42,0,0,1,13.47-5.36,17.83,17.83,0,0,1,14.41,6.71q3.61,4.34,4.38,13Z"/><path class="cls-1" d="M235.09,189.74a17.46,17.46,0,0,0-7.65-6.11,142,142,0,0,0-17.21-5.39q-8.53-2.33-10.29-3a10.31,10.31,0,0,1-4.45-3.1,6.37,6.37,0,0,1-1.42-4.07q0-3.54,3.42-6.2t11.44-2.65c4.52,0,8,1,10.5,3a12.5,12.5,0,0,1,4.49,8.28l11.37-1.55a24.56,24.56,0,0,0-4-10.63c-1.93-2.66-4.94-4.75-9-6.3a39.48,39.48,0,0,0-14.18-2.32A35.38,35.38,0,0,0,198,151.07a23.71,23.71,0,0,0-7.39,3.4,18.81,18.81,0,0,0-5.73,6.49,17.67,17.67,0,0,0-2.09,8.49,17.29,17.29,0,0,0,2.55,9.21,17.06,17.06,0,0,0,7.5,6.52q4.94,2.37,17.73,5.59,9.49,2.4,11.89,3.94a7.07,7.07,0,0,1,3.42,6.2,9.73,9.73,0,0,1-3.88,7.66q-3.87,3.27-11.88,3.27t-12.37-3.69c-3-2.45-4.75-6-5.4-10.59l-11.5,1.81q1.94,10.9,9,16.47t20.39,5.56a35.75,35.75,0,0,0,14.47-2.81,22,22,0,0,0,9.78-8,19.53,19.53,0,0,0,3.39-10.95A17.06,17.06,0,0,0,235.09,189.74Z"/><path class="cls-1" d="M266.6,209.44a38.12,38.12,0,0,1-5.1.45,7.84,7.84,0,0,1-4-.83,4.83,4.83,0,0,1-2-2.27c-.41-.94-.62-3.08-.62-6.39V160.28h11.7v-9H254.9V126.33l-11.56,7.91v17h-8.53v9h8.53v39.47q0,10.47,1.42,13.73a11.15,11.15,0,0,0,4.91,5.26c2.32,1.34,5.6,2,9.82,2a43.16,43.16,0,0,0,8.79-1Z"/><path class="cls-1" d="M90.57,57.25v47.3H77.76V93.11h-.08a3.57,3.57,0,0,1-1,.93,21.87,21.87,0,0,1-3.34,3,33.27,33.27,0,0,1-5,3.24,46.68,46.68,0,0,1-23,5.89,44.84,44.84,0,0,1-23.89-6.49,40.75,40.75,0,0,1-13-12.37,20,20,0,0,1-1.62-2.56A26.76,26.76,0,0,1,5.46,82L4.18,79.19a31.62,31.62,0,0,1-1.7-4.78,21.37,21.37,0,0,1-1.11-3.84,46.46,46.46,0,0,1-1-6.06A47.84,47.84,0,0,1,0,58.36V57.17H13.06A8.76,8.76,0,0,0,13,58.62c0,8.54,1.7,15.7,5.12,21.59a30.73,30.73,0,0,0,4,5.38,30.38,30.38,0,0,0,23.13,9.82c9.47,0,17.16-3.33,23.3-9.9a30.8,30.8,0,0,0,4.28-6.07,13,13,0,0,0,.93-1.87,33.53,33.53,0,0,0,2.56-7.51H50.11V57.25Z"/><path class="cls-1" d="M0,48.91V1.62H12.8V13.06h.09a3.36,3.36,0,0,1,1-.94,21.67,21.67,0,0,1,3.33-3,33.42,33.42,0,0,1,5-3.25A46.64,46.64,0,0,1,45.24,0a45,45,0,0,1,23.9,6.49,41.07,41.07,0,0,1,13,12.37,19.45,19.45,0,0,1,1.62,2.57,25.71,25.71,0,0,1,1.36,2.73L86.39,27a31.62,31.62,0,0,1,1.7,4.78,22.22,22.22,0,0,1,1.11,3.84,45.23,45.23,0,0,1,1,6.07,47.67,47.67,0,0,1,.35,6.14V49H77.51a8.88,8.88,0,0,0,.08-1.45c0-8.54-1.71-15.71-5.12-21.6a31.63,31.63,0,0,0-4-5.38,30.41,30.41,0,0,0-23.13-9.81c-9.47,0-17.16,3.32-23.31,9.9a31.1,31.1,0,0,0-4.27,6.06,12.65,12.65,0,0,0-.93,1.88,33.37,33.37,0,0,0-2.57,7.51H40.46v12.8Z"/><path class="cls-1" d="M404.28,94.76q-.75-4.31-.75-20.51V58.74A65.16,65.16,0,0,0,403,48a18.46,18.46,0,0,0-3.61-7.92,19,19,0,0,0-8.08-5.19c-3.66-1.38-8.43-2.07-14.28-2.07a45.71,45.71,0,0,0-15.57,2.42,22.42,22.42,0,0,0-10.27,6.91A25.8,25.8,0,0,0,346.78,51l10.63,4.5c1.25-4.88,3.16-8.27,5.78-10.18s6.64-2.88,12.11-2.88q8.77,0,13.24,3.94,3.3,2.91,3.3,10,0,.64-.06,3-6.67,2.32-20.74,4A84.13,84.13,0,0,0,360.7,65.2,28.13,28.13,0,0,0,352.34,69,19,19,0,0,0,344,84.91,18.19,18.19,0,0,0,350.11,99q6.06,5.52,17.37,5.53a36.1,36.1,0,0,0,12.83-2.26,43.61,43.61,0,0,0,12.44-7.75,24.56,24.56,0,0,0,2.32,8.46h12.15A25.85,25.85,0,0,1,404.28,94.76Zm-12.5-21.93q0,7.68-1.88,11.63a18.1,18.1,0,0,1-7.68,8,24,24,0,0,1-12,2.93q-6.78,0-10.31-3.1a9.87,9.87,0,0,1-3.52-7.74,10,10,0,0,1,1.61-5.53,10.2,10.2,0,0,1,4.59-3.78A44.64,44.64,0,0,1,372.78,73q12.66-1.8,19-4.39Z"/><path class="cls-1" d="M446,10.42V23.8h11.62V10.42Zm0,24V103h11.62V34.39Z"/><path class="cls-1" d="M224.87,49.5a22.51,22.51,0,0,0-3.61-8.59,17.94,17.94,0,0,0-7.79-5.84,28.6,28.6,0,0,0-11.41-2.23q-14.26,0-21.83,11.3V34.39H169.76V103h11.63V65.52q0-13.17,5.41-17.89a18.8,18.8,0,0,1,12.81-4.72,15.31,15.31,0,0,1,8.1,2.1,11.22,11.22,0,0,1,4.83,5.63q1.35,3.51,1.35,10.63V103h11.63V60.81A66.52,66.52,0,0,0,224.87,49.5Z"/><path class="cls-1" d="M593.31,49.5a22.51,22.51,0,0,0-3.61-8.59,17.94,17.94,0,0,0-7.79-5.84,28.6,28.6,0,0,0-11.41-2.23q-14.26,0-21.83,11.3V34.39H538.2V103h11.63V65.52q0-13.17,5.4-17.89a18.85,18.85,0,0,1,12.82-4.72,15.34,15.34,0,0,1,8.1,2.1A11.15,11.15,0,0,1,581,50.64q1.37,3.51,1.36,10.63V103H594V60.81A66.52,66.52,0,0,0,593.31,49.5Z"/><path class="cls-1" d="M521.17,42.11q-9-9.27-23.13-9.27-12.74,0-21.58,7.62-10.59,9.18-10.59,28.23,0,17.39,8.88,26.62T498,104.55a33.58,33.58,0,0,0,16.57-4.21,28.07,28.07,0,0,0,11.57-11.78q4-7.59,4-20.84Q530.15,51.37,521.17,42.11Zm-8.72,46.28a19.12,19.12,0,0,1-28.88,0q-5.76-6.54-5.75-19.73T483.57,49a19.18,19.18,0,0,1,28.85,0q5.77,6.56,5.78,19.28Q518.2,81.82,512.45,88.39Z"/><path class="cls-1" d="M330.19,32.84a12.84,12.84,0,0,0-7.46,2.32q-3.39,2.33-7.4,9.63V34.39H304.87V103h11.62V67.07a45.27,45.27,0,0,1,1.94-13.55,12.34,12.34,0,0,1,4.33-6.37,11.08,11.08,0,0,1,6.86-2.3,16.67,16.67,0,0,1,8.51,2.52l4-10.79A22.68,22.68,0,0,0,330.19,32.84Z"/><path class="cls-1" d="M435.94,92.6a39.44,39.44,0,0,1-5.1.45,7.71,7.71,0,0,1-4-.84,4.78,4.78,0,0,1-2-2.27q-.62-1.41-.62-6.39V43.43h11.69v-9H424.25v-24l-11.56,7.92V34.39h-8.53v9h8.53V82.9c0,7,.48,11.56,1.42,13.74a11.12,11.12,0,0,0,4.91,5.25c2.32,1.34,5.6,2,9.82,2a43.16,43.16,0,0,0,8.79-1Z"/></g></g></svg>