<?xml version="1.0" standalone="no"?>
<!DOCTYPE svg PUBLIC "-//W3C//DTD SVG 20010904//EN"
 "http://www.w3.org/TR/2001/REC-SVG-20010904/DTD/svg10.dtd">
<svg version="1.0" xmlns="http://www.w3.org/2000/svg"
 width="2688.000000pt" height="396.000000pt" viewBox="0 0 2688.000000 396.000000"
 preserveAspectRatio="xMidYMid meet">

<g transform="translate(0.000000,396.000000) scale(0.100000,-0.100000)"
fill="#000000" stroke="none">
<path d="M23755 3911 c-3 -10 -1 -30 4 -45 10 -26 11 -26 115 -26 80 0 106 -3
116 -15 7 -8 23 -15 36 -15 l24 0 0 -1796 0 -1796 -31 -29 c-29 -27 -35 -28
-142 -31 l-112 -3 -3 -33 -3 -32 755 0 756 0 0 29 c0 17 -6 31 -16 35 -9 3
-64 6 -123 6 -80 0 -112 4 -129 16 l-22 15 0 1854 c0 1019 -3 1860 -6 1869 -6
14 -69 16 -609 16 -581 0 -604 -1 -610 -19z"/>
<path d="M25340 3903 c1 -54 18 -63 121 -63 62 0 108 -5 136 -16 l43 -17 0
-1798 c0 -1343 -3 -1805 -12 -1824 -11 -25 -13 -25 -120 -25 -60 0 -118 -5
-129 -10 -26 -15 -24 -46 4 -54 12 -3 350 -6 750 -6 l728 0 -3 33 -3 32 -118
3 c-101 2 -119 5 -124 20 -4 9 -17 25 -30 35 l-23 18 -2 1847 -3 1847 -607 3
-608 2 0 -27z"/>
<path d="M18206 3648 c-3 -18 -10 -91 -16 -163 -6 -71 -17 -173 -25 -225 -15
-97 -24 -844 -11 -857 3 -4 27 -2 53 3 l47 9 13 75 c9 48 20 81 32 90 12 10
21 37 25 75 5 39 15 68 28 82 12 13 25 48 32 85 8 48 16 65 32 72 17 8 23 22
28 64 5 41 12 59 31 74 14 11 25 30 25 43 0 32 15 68 37 90 10 10 23 37 28 59
8 30 17 42 33 44 16 2 24 14 32 43 6 22 21 46 36 55 13 9 27 26 30 39 3 13 21
29 47 40 23 10 51 28 63 40 12 13 39 25 67 29 32 5 48 13 52 25 5 16 21 19
113 25 59 4 115 4 125 1 16 -7 17 -96 17 -1674 0 -916 -4 -1671 -8 -1678 -5
-7 -69 -12 -200 -15 -214 -3 -212 -3 -212 -70 l0 -38 910 0 910 0 0 45 c0 34
-5 47 -19 55 -11 5 -87 10 -173 10 -84 0 -170 5 -190 11 l-38 10 0 1664 c0
1320 3 1665 13 1672 6 4 66 7 132 6 115 -2 121 -3 142 -28 12 -14 30 -25 40
-25 42 0 93 -21 93 -38 0 -11 12 -21 33 -27 21 -7 33 -17 35 -32 2 -13 13 -24
28 -27 17 -5 26 -16 30 -34 3 -16 15 -32 27 -37 15 -7 26 -27 36 -62 10 -40
19 -53 32 -53 13 0 19 -7 19 -21 0 -40 23 -97 40 -102 12 -3 20 -19 24 -52 10
-64 15 -75 36 -75 14 0 19 -12 25 -57 7 -57 21 -92 42 -105 6 -5 14 -35 18
-68 6 -48 12 -64 33 -81 22 -17 27 -30 30 -87 4 -57 8 -70 33 -93 16 -15 29
-34 29 -43 0 -19 59 -23 61 -3 1 6 0 277 -1 602 -2 509 -4 594 -17 620 -9 16
-21 33 -27 37 -6 4 -669 8 -1473 8 l-1462 0 -5 -32z"/>
<path d="M14065 3395 c-5 -2 -49 -9 -97 -15 -71 -10 -88 -16 -93 -31 -5 -15
-16 -19 -51 -19 -25 0 -77 -5 -116 -12 -54 -9 -72 -16 -76 -30 -3 -14 -14 -18
-51 -18 -85 0 -175 -19 -193 -41 -13 -15 -33 -22 -75 -25 -32 -3 -68 -7 -80
-10 l-23 -4 -2 -328 -3 -327 -125 -5 -125 -5 1 -37 c2 -62 13 -68 128 -68 66
0 106 -4 114 -12 9 -9 12 -219 12 -885 l0 -872 24 -54 c13 -30 27 -86 31 -125
6 -60 11 -73 31 -87 16 -10 26 -29 30 -55 5 -30 13 -43 33 -53 14 -7 27 -22
29 -33 2 -15 12 -24 31 -27 20 -4 31 -14 35 -31 5 -20 14 -25 56 -31 42 -6 51
-11 56 -31 7 -27 20 -31 110 -37 40 -2 67 -9 78 -20 34 -33 85 -39 339 -35
246 3 248 3 266 26 12 16 30 25 62 28 95 11 106 14 117 38 6 14 22 26 40 29
18 4 31 14 35 26 3 12 16 25 30 30 13 5 27 19 30 31 3 12 15 24 27 27 13 4 23
16 27 34 4 19 13 31 28 35 17 4 23 16 31 57 7 38 15 54 31 61 18 9 22 21 28
88 4 43 12 84 19 91 6 7 19 29 30 49 23 45 15 114 -15 123 -23 8 -39 -1 -39
-21 0 -8 -9 -14 -20 -14 -23 0 -26 -12 -35 -122 -5 -54 -11 -78 -20 -78 -7 0
-21 -27 -31 -62 -12 -37 -25 -63 -35 -65 -9 -3 -23 -25 -31 -51 -12 -35 -21
-48 -38 -50 -14 -2 -26 -15 -33 -32 -9 -23 -18 -29 -56 -35 -24 -4 -61 -18
-80 -31 -38 -26 -101 -33 -101 -11 0 6 -28 21 -63 32 -54 18 -62 23 -65 48 -2
15 -9 27 -17 27 -40 0 -40 8 -43 1049 -2 747 0 1007 9 1017 9 11 65 14 293 14
154 0 287 4 294 9 7 4 14 28 15 52 l2 44 -307 3 -308 2 0 425 0 424 -37 10
c-39 11 -50 12 -68 6z"/>
<path d="M16115 2576 c-27 -7 -67 -20 -89 -29 -25 -11 -66 -17 -116 -17 -89 0
-136 -13 -143 -41 -4 -16 -14 -19 -61 -19 -45 0 -57 -4 -66 -20 -13 -25 -61
-50 -94 -50 -18 0 -25 -6 -28 -22 -2 -14 -11 -24 -23 -26 -38 -6 -75 -24 -75
-37 0 -7 -16 -20 -36 -30 -19 -9 -39 -27 -44 -39 -5 -13 -18 -26 -29 -29 -11
-3 -25 -16 -30 -30 -5 -14 -18 -31 -28 -39 -23 -17 -43 -53 -43 -77 0 -13 -8
-21 -22 -23 -17 -2 -24 -11 -28 -33 -6 -35 -37 -95 -49 -95 -5 0 -12 -26 -16
-57 -5 -41 -14 -64 -30 -79 -20 -18 -23 -34 -29 -130 -4 -60 -13 -131 -21
-159 -22 -84 -37 -223 -25 -244 5 -11 10 -42 10 -68 0 -27 5 -54 11 -60 5 -5
15 -73 21 -149 9 -114 14 -143 30 -160 12 -14 24 -51 32 -95 10 -62 16 -74 33
-77 17 -3 22 -13 27 -56 6 -43 12 -55 31 -64 14 -6 27 -23 31 -37 4 -15 17
-30 30 -35 12 -5 24 -19 26 -32 2 -13 13 -27 25 -33 12 -5 24 -17 27 -27 2
-10 18 -23 35 -29 20 -7 31 -18 31 -30 0 -14 9 -21 30 -26 21 -4 32 -13 36
-29 4 -17 13 -24 30 -24 26 0 94 -37 94 -51 0 -5 10 -9 23 -9 47 0 94 -20 105
-45 11 -24 16 -25 89 -25 67 0 84 -4 123 -28 l45 -27 315 0 315 0 39 28 c33
23 49 27 110 27 91 0 114 7 118 34 3 18 13 22 66 30 42 6 62 13 62 23 0 15 57
43 89 43 12 0 21 9 25 24 4 17 15 26 35 31 20 4 31 13 33 28 2 13 12 23 28 27
16 4 26 14 28 28 2 13 13 24 27 28 14 3 28 17 34 35 6 18 19 31 35 35 19 4 26
13 26 31 0 14 13 37 30 55 20 20 30 40 30 61 1 21 12 45 30 67 26 29 30 42 30
92 0 44 4 60 15 65 9 3 23 22 33 42 15 32 16 84 17 473 l0 437 -30 31 c-25 26
-30 40 -33 96 -4 57 -7 67 -27 74 -26 10 -35 29 -35 77 0 29 -5 36 -30 46 -22
8 -30 18 -30 36 0 14 -14 38 -35 58 -19 19 -35 43 -35 53 0 11 -7 20 -16 20
-8 0 -28 15 -45 33 -16 17 -44 37 -62 43 -17 6 -36 20 -42 32 -5 12 -19 22
-30 22 -25 0 -84 35 -91 55 -4 10 -20 15 -48 15 -60 0 -86 10 -86 31 0 11 -1
19 -2 20 -2 0 -57 4 -122 8 -78 5 -121 11 -124 19 -2 7 -16 12 -31 12 -15 0
-33 6 -39 12 -19 19 -360 22 -427 4z m317 -136 c6 -18 19 -32 33 -36 17 -4 25
-17 34 -60 7 -29 20 -58 28 -63 18 -9 19 -20 50 -441 19 -256 22 -808 5 -1010
-6 -69 -15 -208 -21 -309 -10 -170 -13 -186 -35 -216 -13 -17 -26 -42 -28 -56
-1 -13 -13 -28 -26 -34 -13 -5 -25 -20 -28 -32 -5 -18 -17 -24 -62 -33 -32 -6
-66 -14 -76 -19 -10 -4 -42 -2 -70 5 -28 7 -63 15 -77 18 -15 3 -29 15 -32 26
-3 11 -16 24 -30 29 -27 10 -37 29 -37 69 0 16 -10 34 -26 47 -24 19 -26 27
-31 130 -3 61 -9 115 -14 120 -18 23 -30 231 -36 613 -6 403 5 680 30 726 5
11 13 94 18 185 8 158 9 167 32 186 17 14 27 35 31 67 6 41 10 47 37 53 22 5
29 12 29 29 0 13 3 26 7 29 3 4 69 7 145 7 l139 0 11 -30z"/>
<path d="M22325 2584 c-29 -5 -59 -16 -99 -36 -11 -6 -66 -13 -123 -17 -93 -6
-106 -9 -122 -29 -12 -17 -32 -25 -79 -32 -49 -7 -67 -14 -83 -34 -11 -14 -35
-28 -54 -32 -19 -3 -35 -10 -35 -15 0 -14 -62 -49 -87 -49 -17 0 -23 -6 -23
-21 0 -13 -11 -25 -35 -35 -23 -9 -35 -21 -35 -33 0 -13 -8 -21 -22 -23 -13
-2 -29 -15 -36 -30 -7 -16 -20 -28 -28 -28 -8 0 -21 -15 -29 -34 -8 -18 -23
-36 -35 -39 -11 -3 -20 -13 -20 -25 0 -10 -12 -37 -28 -58 -15 -21 -33 -57
-41 -79 -7 -22 -21 -49 -31 -60 -10 -11 -21 -46 -25 -79 -7 -59 -15 -80 -47
-125 -16 -21 -18 -55 -18 -355 0 -244 4 -337 13 -353 39 -69 46 -90 53 -152 5
-52 12 -75 29 -94 14 -14 26 -44 30 -71 5 -33 14 -52 31 -62 12 -9 26 -29 29
-45 4 -18 13 -29 24 -29 11 0 23 -17 36 -49 11 -28 27 -52 37 -54 10 -3 22
-17 28 -31 5 -15 21 -31 35 -36 14 -5 30 -21 35 -35 5 -14 17 -25 25 -25 25 0
75 -29 75 -44 0 -7 14 -16 31 -20 17 -3 39 -17 50 -30 13 -16 33 -25 66 -30
31 -4 61 -17 85 -36 33 -27 44 -30 108 -30 60 0 79 -4 118 -27 l47 -28 280 -3
c289 -3 357 3 381 36 10 13 32 18 97 20 73 3 86 7 90 22 5 21 66 50 103 50 16
0 24 6 24 18 0 17 48 42 81 42 8 0 20 14 26 30 7 19 18 30 31 30 13 0 24 10
30 29 6 16 19 32 29 35 10 3 27 26 38 51 11 25 27 47 36 50 9 3 20 21 23 39 4
21 15 38 31 46 16 9 25 22 25 38 0 43 23 103 47 122 19 15 23 27 23 74 l0 56
-32 0 c-48 0 -84 -47 -93 -121 -6 -48 -10 -59 -25 -59 -14 0 -21 -13 -31 -56
-9 -41 -19 -59 -35 -66 -12 -6 -24 -23 -28 -39 -3 -16 -12 -29 -20 -29 -8 0
-23 -16 -35 -35 -12 -21 -28 -35 -40 -35 -13 0 -21 -8 -23 -22 -2 -16 -11 -24
-30 -26 -18 -2 -28 -11 -32 -26 -4 -18 -15 -25 -47 -30 -51 -8 -79 -22 -79
-40 0 -25 -319 -40 -472 -22 -59 7 -67 10 -72 32 -5 19 -13 24 -36 24 -23 0
-31 5 -36 24 -3 15 -15 27 -30 30 -17 5 -24 13 -24 30 0 17 -8 27 -29 34 -22
8 -30 18 -35 49 -11 61 -16 71 -35 76 -19 5 -31 59 -31 142 0 27 -5 45 -13 48
-32 12 -41 95 -41 392 -1 233 2 295 13 308 12 16 71 17 690 17 372 0 682 4
689 9 10 6 13 52 10 214 -3 180 -5 208 -20 219 -23 17 -35 54 -44 127 -5 48
-10 61 -24 61 -16 0 -40 55 -40 92 0 8 -11 20 -25 26 -14 6 -25 19 -25 28 0 9
-25 41 -55 72 -30 31 -55 60 -55 63 0 4 -16 13 -35 19 -23 8 -35 18 -35 30 0
12 -10 21 -30 25 -16 4 -38 18 -48 31 -12 18 -31 27 -62 31 -45 6 -110 38
-110 54 0 5 -37 9 -83 9 -68 0 -96 5 -148 27 -59 24 -77 27 -219 29 -85 1
-168 0 -185 -2z m215 -127 c0 -7 14 -23 30 -35 18 -14 30 -32 30 -46 0 -14 9
-27 24 -34 30 -13 34 -54 42 -452 5 -219 3 -317 -5 -347 l-12 -43 -238 0 -238
0 -7 46 c-8 62 -7 392 3 527 6 87 11 113 29 137 12 16 22 40 22 53 0 51 13 85
36 98 13 7 24 19 24 26 0 8 16 30 36 49 37 34 38 34 130 34 71 0 94 -3 94 -13z"/>
</g>
</svg>
