<svg id="Layer_1" data-name="Layer 1" xmlns="http://www.w3.org/2000/svg" viewBox="0 0 1372.87 1280"><defs><style>.cls-1{fill:#221f20;}</style></defs><path class="cls-1" d="M711.92,1278.14a667,667,0,0,1-420.15-110H221.65a661.29,661.29,0,0,1-60.38-45.37h70.12q-21.55-18.2-41.86-38.49A665.3,665.3,0,0,1,33.17,837.86h99.15a666.19,666.19,0,0,0,156.36,246.4c13.6,13.6,27.63,26.36,42,38.49H260.56a663.12,663.12,0,0,0,60.52,45.37H391.2A665.75,665.75,0,0,0,711.92,1278.14Z"/><path class="cls-1" d="M1273.72,882.24q-8.84,20-19.07,39.55a665.44,665.44,0,0,1-202.23,15.71A664.79,664.79,0,0,0,1273.72,882.24Z"/><path class="cls-1" d="M1259.77,1022.48q-18.19,23.36-38.78,45.37h-70.12c-5.19,5.54-10.45,11-15.85,16.41a665.52,665.52,0,0,1-423.1,193.88,665.75,665.75,0,0,1-320.72-110H321.08a663.12,663.12,0,0,1-60.52-45.37h70.12c-14.37-12.13-28.4-24.89-42-38.49a666.19,666.19,0,0,1-156.36-246.4H272.56c-2.25-6.38-4.35-12.76-6.46-19.22H196a669.67,669.67,0,0,1-30.86-257.82h70.12c.42-6.39,1-12.84,1.61-19.22H166.74q1.17-10.62,2.53-21.24H99.15c2.1-15.22,4.77-30.37,7.85-45.44h70.12A665.2,665.2,0,0,1,276.83,238.2H206.71q15.67-23.25,33.45-45.44h70.12a687.2,687.2,0,0,1,48.45-54.13A660.76,660.76,0,0,1,434.11,73.7a671.1,671.1,0,0,0,2.24,401.22H366.23q7.26,22.93,16.34,45.44h70.12c2.87,7.08,5.82,14.16,9,21.24h70.11c2.88,6.45,5.83,12.83,8.84,19.22H470.5a668.79,668.79,0,0,0,129.79,182.8,673.53,673.53,0,0,0,89.34,75h70.11c9.54,6.67,19.15,13.12,29,19.22H648.46a667,667,0,0,0,404,99.64,665.44,665.44,0,0,0,202.23-15.71,655.27,655.27,0,0,1-65,100.69Z"/><path class="cls-1" d="M1052.42,937.5a667,667,0,0,1-404-99.64h99.15A666,666,0,0,0,1052.42,937.5Z"/><path class="cls-1" d="M887.85,837.86H788.7c-9.81-6.1-19.42-12.55-29-19.22H689.63a673.53,673.53,0,0,1-89.34-75A668.79,668.79,0,0,1,470.5,560.82h70.12c-3-6.39-6-12.77-8.84-19.22H461.67c-3.16-7.08-6.11-14.16-9-21.24H382.57q-9-22.51-16.34-45.44h70.12A671.1,671.1,0,0,1,434.11,73.7,661.4,661.4,0,0,1,560.74,0c-66.47,150.2-74.81,319.81-25.24,474.92H465.38q7.37,22.93,16.41,45.44h70.12c2.8,7.08,5.82,14.16,9,21.24H631c2.8,6.45,5.75,12.83,8.83,19.22H569.72a666.82,666.82,0,0,0,129.72,182.8,670.77,670.77,0,0,0,89.47,75H859C868.5,825.31,878.11,831.76,887.85,837.86Z"/><path class="cls-1" d="M1288.73,1022.48h70.12q-18.21,23.36-38.78,45.37H1250c-5.19,5.54-10.31,11.08-15.71,16.41-143.18,143.11-335.1,207.76-522.32,193.88A665.52,665.52,0,0,0,1135,1084.26c5.4-5.4,10.66-10.87,15.85-16.41H1221q20.61-22,38.78-45.37h-70.12a655.27,655.27,0,0,0,65-100.69,659.91,659.91,0,0,0,118.22-39.55A664.05,664.05,0,0,1,1288.73,1022.48Z"/><path class="cls-1" d="M461.6,0a660.23,660.23,0,0,0-27.49,73.7,660.76,660.76,0,0,0-75.38,64.93,687.2,687.2,0,0,0-48.45,54.13H240.16q-17.78,22.19-33.45,45.44h70.12a665.2,665.2,0,0,0-99.71,236.72H107c-3.08,15.07-5.75,30.22-7.85,45.44h70.12q-1.36,10.62-2.53,21.24h70.12c-.63,6.38-1.19,12.83-1.61,19.22H165.13A669.67,669.67,0,0,0,196,818.64H266.1c2.11,6.46,4.21,12.84,6.46,19.22H173.41c-2.32-6.38-4.42-12.76-6.46-19.22H96.84A671.06,671.06,0,0,1,65.91,560.82H136c.49-6.39,1-12.84,1.69-19.22H67.6q1.05-10.62,2.52-21.24H0C2.1,505.14,4.77,490,7.85,474.92H78A665.2,665.2,0,0,1,177.68,238.2H107.56Q123.24,215,141,192.76h70.12a699.4,699.4,0,0,1,48.45-54.13A666.28,666.28,0,0,1,461.6,0Z"/></svg>