<svg xmlns="http://www.w3.org/2000/svg" viewBox="0 0 932.47 932.2"><defs><style>.cls-1{fill:#fff;}</style></defs><g id="Layer_2" data-name="Layer 2"><g id="Layer_1-2" data-name="Layer 1"><path class="cls-1" d="M466.68,0C724.75.57,935,210,932.44,470.86,930,726.33,722.5,932.44,465.75,932.2,204.93,932-1.28,719.09,0,464,1.3,207.77,210.13-.42,466.68,0ZM371,794.65c.33.21.64.44,1,.62,0,0,.21-.18.32-.28l-1.16-.51c-6.35-7.43-7.71-7.79-13.39-3.33C362.23,792.4,366.33,794.54,371,794.65Zm108.09-471c-4.37-3-6.83-7.4-9.52-11.74a68.16,68.16,0,0,0-7-9c-2.12-2.4-4.26-.13-6.2.65-1.25.5-1.14,1.74,0,2.8C463.23,313,470,319.77,478.81,324c6.68,5.6,14.58,8.5,23,10.94,0-2.31-1.43-3.15-2.29-4.3-7.67-10.2-15.45-20.35-19.21-32.84-.5-1.68-.34-4-3.28-2.8-2.78,1.12-1.37,2.73-.65,4.39a71.37,71.37,0,0,1,5.64,22C482.3,324.27,481.24,324.47,479.08,323.61Zm139.17,61.2c.86-1,1.81-1.9,2.56-3,12.3-17.57,2-40-9.36-49.78-1.76-1.52-3.56-3.22-6.38-3.91,9.54,17.84,16.77,35.81,12.74,56.28-.67.42-.8.92-.23,1.54ZM423.41,239c2.69-1.3,5.38-2.56,8-3.89C453,224.4,474,232,486.94,248.62c6.11,7.86,10.78,16.48,13,26.15,3.81,16.64,11.61,30.77,25.12,41.31,9.62,7.51,20.48,9.39,33.53,5.26-16.42-3.16-26-12.87-32.74-26-6.19-12-10.31-24.85-14.84-37.5-6-16.82-15.42-30.3-32.8-37.25-20.27-8.1-45.14-.34-55.37,17.83l-.49,1ZM457,329.76c-7.75-5.78-15.58-11.35-25.24-13.65a13.91,13.91,0,0,0-9.19.77c-6.36,2.76-12.8,5.31-19.24,7.88-12.24,4.9-24.85,9.14-33.76,19.78a19.12,19.12,0,0,1-4.72,3.64c-10.14,6.29-21.34,8.21-33,7.41-5.9-.41-10.55,2.13-15.22,5,28.26,2.87,55.52,2.66,74.29-25.59.62,6-.77,10.08-2,14.1-4.37,14.23-13.27,23.75-28.24,27.37-16.12,3.9-32,1.36-48.06-.18-14.19-1.35-28.68-4.9-42.64,2.1-7.21,3.61-15.87,4.42-21.4,11.23-3,3.69-6,7.4-9.14,11.25-.92-3.64,1.91-6.72,1.11-10.53-11.31,4.54-22.33,8.93-33.33,13.37-25.28,10.21-50.44,20.74-75.91,30.43-5.29,2-6.94,4.68-7,9.52,0,1.5-.1,3-.15,4.5-.49,17.14-.63,34.29,1.14,51.38a398.11,398.11,0,0,0,6.75,42.32c.59,2.75,1.64,3.19,4.1,2.08,3.45-1.57,7-2.83,10.56-4.25q46-18.56,91.91-37.12,46.46-18.69,92.95-37.27c19.15-7.67,38.34-15.24,57.41-23.09,4.28-1.76,9-2.76,12.9-6-1.53-1.13-2.78-2-3.92-2.91-14.72-12.12-25.61-27-31.9-45-2-5.68.18-9.32,5.9-10.86a10.89,10.89,0,0,1,11.34,3.31c8.5,8.88,18.76,15.35,29.13,21.72a22.18,22.18,0,0,0,15.26,3.41c19-2.87,33.36-13.08,42.9-29.41,5.8-9.95,11.4-19.92,19.14-28.51,1.82-2,1.43-2.73-1.06-3.63C482.08,342,476.38,338.24,471,334c-8.46-6.61-15.4-14.66-22.43-22.66-2.54-2.9-2.61-2.83-6.08-1.86,5.75,6.11,11.37,12.21,14.85,19.88Zm175.3,215.31c2.34-1,4.53-.31,6.7.15,24,5.17,47.81,11.64,72.57,13.15,28.49,1.74,56.52,0,83.87-8.8,2.46-.8,3.84-2,4.43-4.64a371.23,371.23,0,0,0,8.2-53.67,330.11,330.11,0,0,0-.84-58.81,343.22,343.22,0,0,0-15.92-74.92c-1.06-3.14-2.67-4.46-5.8-5.14-12.57-2.73-25.32-3.78-38.08-4.91-2.1-.18-4.51.28-6-2.16,15.81.66,31.51,1.88,47.54,5.52a333.8,333.8,0,0,0-23.35-51.45c-1.17-2.08-2.8-2-4.64-1.93-27.49.6-54.94.54-82.21-3.61-2.6-.39-3.12,1.25-4.08,2.71a257.41,257.41,0,0,1-30,38c-.52.54-1.35,1.06-.62,2.15l49.62,3.93-.15,2.07-43.07-3.12c.23.83.22,1.05.31,1.11,1.12.71,2.25,1.41,3.39,2.08,11.09,6.46,20.83,14.42,27.56,25.54a120.94,120.94,0,0,1,13.43,32.1c.51,2,.33,4.41,3.65,4.28,7.31-.28,14.63.14,22-.6,20.54-2.06,40.19.6,58.1,11.68C788.27,421.6,796,429,799,440.15c4.73,17.63-6,42.28-22.17,51.89-14.22,8.42-30,10.66-46,11.27-21.71.83-43.18-1.94-64.4-6.28-23.91-4.89-47.18-12.48-71.49-15.86-29.75-4.13-59.31-4.7-88.78,1.52-36.83,7.77-68.24,25.24-92.67,54.05C390.94,563.26,373.82,593,363,626.2a179.71,179.71,0,0,0-7.28,83.24c5,33.42,19.26,62.73,39.46,89.44,1.77,2.34,4,3.24,6.7,3.76a364.45,364.45,0,0,0,48.51,5.69,144.5,144.5,0,0,0,25-.23c-14.53-10-26.65-20.46-37.11-32.82-12.81-15.15-24.88-35.69-24-41.28,2,.8,2.11,2.83,2.85,4.38,13.34,27.87,33.17,50.06,58.75,67.23,2.18,1.47,4.41,2.66,7.36,2.53a340.36,340.36,0,0,0,87.11-15.61c4.21-1.32,8.28-2.34,6.49-9.37,2.81,3.61,4.62,6,8.48,4.35,9.16-3.94,18.56-7.33,27.53-11.73a8.48,8.48,0,0,0,4.21-4,88,88,0,0,0,9.07-31c3.83-43.62-20.69-75-58.82-92.84-13.77-6.45-28.73-6-43.67-4.58-16.21,1.49-18.56,2.85-22,18.81-1.07,4.89-3.24,7.53-7.59,9.84-13.24,7-16.88,18.68-10.29,30.91,3,5.61,3,5.58,7.94,1.44,16.38-13.78,34.87-17.24,55.13-10.8,10.6,3.37,19.62,9.12,25.07,19.31,10.5,19.63-10.11,47.44-30.07,48.73-15.73,1-30-2.95-43.31-10.9-25.34-15.08-40.44-46.55-29.3-77.49,7.3-20.27,21.27-35.61,38.11-48.36,22.2-16.81,48.17-22.72,75.33-24.21,24.19-1.32,48.1.92,71.93,5.63,17.27,3.41,34.95,4.42,52.55,5.69a489.8,489.8,0,0,0,65.35.54,5.55,5.55,0,0,0,5.35-3.6A362.68,362.68,0,0,0,797.19,555c1-3.75.29-3.92-3-2.82-20.61,6.78-41.92,9.13-63.49,9.19-28.66.07-56.6-5.09-84.2-12.38C641.72,547.77,636.62,547.92,632.25,545.07ZM369.79,562.94c-1.44-.69-2.52-.16-3.58.26-18.4,7.33-36.82,14.62-55.19,22-22.51,9.08-45,18.28-67.46,27.4-22.79,9.25-45.56,18.57-68.45,27.55-3.27,1.28-2.81,2.22-1.45,4.41A349.66,349.66,0,0,0,239.6,723c1.48,1.3,2.72,1.81,4.86.93C273,712.21,301.7,700.69,330.3,689c8.31-3.39,8.6-3.74,4.39-11.62-2.11-4-1.62-6.74.3-10.4,7-13.39,10.55-27.64,8.5-42.81-.56-4.15.11-7.13,2.87-10.37,10-11.77,17.92-24.74,21.31-40.12C368.46,570.09,366.94,566.11,369.79,562.94ZM578.09,142.3a363.41,363.41,0,0,0-77.75-16.92,341.25,341.25,0,0,0-88.54,2.55,337.62,337.62,0,0,0-111.53,38.54c-8.08,4.49-8.11,4.43-4.11,12.77l.22.44c5.4,11.73,15.21,19.13,25.54,26C335,214.33,350.2,219,363.45,227.34c1.63,1,3.18.17,4.73-.46q14.88-6.06,29.77-12,46.94-18.84,93.88-37.64,33.81-13.53,67.64-27C565.26,147.87,571,145.33,578.09,142.3Zm25.44,325.56.3,1.19c.94.18,1.86.42,2.8.54a76.8,76.8,0,0,0,30.1-2.1c1.92-.52,3.18-.65,4.76,1,14.76,15.64,32.74,17.56,52.25,11.63,3.44-1.05,5.52-.79,8.27,1.64,13.93,12.34,29,14.13,43.4,5.07a29.74,29.74,0,0,1,11.46-4.23c15-2.51,22.5-10.77,24-26.08a11,11,0,0,1,1.31-4.19c6-11.35,1.93-21.05-10.52-24.74-3.86-1.15-7.16-2.55-10.06-5.61-3.76-4-8.74-5.77-14.43-5.64-5.92.13-10.94,2.47-15.79,5.48-1.23.76-2.25,2.1-4,.86-3.81-2.81-7.54-2.24-11.56-.13a62.86,62.86,0,0,1-12.74,5.37c-6.09,1.63-10.24,4.54-12,10.93-.81,3-3.34,5.3-5.51,7.62-6.25,6.68-12.32,6.94-18.17.06-2.53-3-4.52-2.76-7.6-1.5-11.6,4.78-23.31,9.3-34.94,14C617.75,461.91,610.65,464.91,603.53,467.86Zm16.53,304.21c16.77-8.15,31.52-18,46.41-27.7,6.59-4.3,7.28-9,6.1-15.78-4.13-24.05-13.38-46.19-24.26-67.82-6.6-13.11-14.89-24.79-26.45-34-1.63-1.29-3.41-3.46-5.67-1.86-3.13,2.2-5.39.81-8.14-.71-16.39-9.11-38-10.75-53.3,4-1.61,1.55-3.14,1.3-5,.82a38.26,38.26,0,0,0-17.77-.47c-8.66,1.9-16.05,5.72-21.11,14.28,37.75-8.29,69.35,1.62,94.95,30.23C632.23,702.58,634.3,735.61,620.06,772.07Zm171.12-86.75c12.08,2.4,23,4.47,33.83,6.75,11.1,2.32,11.09,2.4,17.39-7a36,36,0,0,1,2.8-4.13c2.69-2.94,1.58-4.55-1.4-6.52-19.3-12.76-38.56-25.56-57.62-38.67-3.78-2.59-5-1-6.66,1.9-1.47,2.63-4.78,4.66.18,7.71,10.34,6.36,20.28,13.37,30.36,20.14,1.06.71,2.61,1.36,2,3-.85,2.2-2.19.34-3.26.14-13.55-2.62-27.08-5.32-40.63-7.9-1.34-.26-3.08-1.13-4.13.48-.77,1.2.45,2.14,1.07,3.08,1.46,2.22,3,4.4,4.44,6.63,7,10.65,14.62,20.85,20.93,32.1-3,1.31-4.72-.54-6.57-1.78-9.81-6.58-19.66-13.1-29.39-19.81-2.33-1.61-3.54-1.45-5,1-2.59,4.27-5.42,8.4-8.36,12.43-1.6,2.18-1.14,3.22,1,4.66q29.93,19.9,59.7,40c2,1.36,3.19,1.68,4.65-.77,2.55-4.28,5.4-8.4,8.31-12.46,1.5-2.08,1.43-3.7,0-5.8-4.2-6-8.21-12.13-12.26-18.23C798.92,697.06,795.39,691.69,791.18,685.32ZM864.84,387.9c-1.77.54-2.38.77-3,.92-13.74,3.28-27.44,6.73-41.25,9.71-4.21.91-5.05,2.34-3.69,6.33a93.5,93.5,0,0,1,3,13.09c.45,2.4,1.54,3.11,3.78,2.46,1.28-.38,2.57-.68,3.87-1,21.52-5,43-10.1,64.58-15,3.68-.84,5.46-2.07,4-6.27a76.37,76.37,0,0,1-2.88-12.1c-.49-2.87-1.57-4.15-4.71-4.53-7.75-.95-15.46-2.3-23.12-3.81-5.7-1.11-11.66-1.1-17.78-3.51,8.67-6.29,16.76-12.09,24.77-18,3.84-2.85,9.75-4.69,10.93-8.86s-2-9.22-2.39-14c-.48-5.79-3.35-5.27-7.57-4.25-22,5.32-43.94,10.65-66,15.44-5.27,1.14-3.78,3.83-3.13,6.73s.6,6,5.78,4.57c13.86-3.77,28-6.71,42-10a23.06,23.06,0,0,1-5.2,4.77q-16.95,12.33-33.89,24.68c-.86.62-2.32.94-2.11,2.45a1.94,1.94,0,0,0,1.72,1.59c9.72,1.65,19.42,3.48,29.18,4.83C849.07,385.18,856.43,386.18,864.84,387.9Zm-727-161,.49-.71c.67.4,1.37.77,2,1.21,12,8,24.15,16,36.08,24.21,2.62,1.81,3.77,1.49,5.3-1.1a100.69,100.69,0,0,1,7.51-11.19c2.42-3,1.7-4.55-1.35-6.54-15.85-10.42-31.51-21.14-47.37-31.56-4.65-3.06-9.59-9.47-14-8.12s-6.61,8.6-9.95,13.15c-1.68,2.29-2,4.14-.17,6.63,4.54,6.37,8.8,12.93,13.15,19.43,3.26,4.87,6.48,9.76,10.41,15.68-12.45-2.51-23.51-4.67-34.54-7C95,238.8,95,238.72,89,247.66a42.06,42.06,0,0,1-3.08,4.54c-2.52,2.83-1.82,4.44,1.26,6.47,18.64,12.25,37.15,24.69,55.67,37.12,6,4,5.81,4,9.87-1.75,2.09-3,1.5-4.4-1.38-6.23-8-5.1-15.82-10.48-23.7-15.76-3.79-2.55-7.56-5.15-12.25-8.35a26.48,26.48,0,0,1,3.66,0c14.35,2.81,28.7,5.67,43.05,8.49,1.59.32,3.63,1.28,4.7,0,1.5-1.84-.72-3.28-1.64-4.65Q151.57,247.18,137.86,226.93ZM80.13,586.86c-.17-.33-.35-.66-.53-1,1.28-1,2.54-2,3.85-3q17-12.3,33.94-24.61c1.14-.83,3-1.37,2.77-3.19-.27-2.14-2.36-1.47-3.66-1.69-9.83-1.69-19.68-3.23-29.52-4.84-5.93-1-11.85-2-17.91-3,.92-2.56,2.72-2.23,4.06-2.55q16-3.85,32-7.52c10.25-2.36,10.26-2.32,7.88-12.35-2.64-11.11-2.66-11.2-13.87-8.63-20.41,4.67-40.78,9.5-61.19,14.18-3.24.74-4.39,2-3.17,5.49a76,76,0,0,1,3.13,13.06c.46,3,1.93,3.78,4.56,4.16,8.71,1.28,17.44,2.54,26.09,4.22,4.7.91,9.7.75,14.85,3.14C72,567,61.3,574.88,50.44,582.54c-2.48,1.74-3.71,3.33-2.68,6.54a81.37,81.37,0,0,1,2.62,11.67c.6,3.75,2.42,4.3,5.85,3.47,22.46-5.39,44.92-10.8,67.47-15.8,6.82-1.51,2.78-5.32,2.65-8.44-.17-4.38-2.75-3.36-5.52-2.7C107.28,580.54,93.7,583.68,80.13,586.86Zm544.09-316c23.64-3.69,41.52-14.79,54.56-33.78,3.41-5,5.72-10.51,8.85-15.6,2.73-4.44,6.84-4.1,9.07.57a16,16,0,0,1,1.32,6.79c.33,16.73-4.8,32.09-11.82,46.94-1.42,3-1.17,3.94,2.4,4,8.89.16,16.69-2.82,23.74-7.83,2.95-2.11,4.53-2.09,7.32.55,8.62,8.16,18.62,12.62,30.92,9.6,3.17-.78,3.81-1.63,1.89-4.48a357.06,357.06,0,0,0-58.31-67.28c-1.53-1.37-2.67-1.6-4.8-.72q-30.66,12.66-61.55,24.82c-2.46,1-3.2,2-2.66,4.23A58.31,58.31,0,0,1,624.22,270.86ZM768.63,627.31c-9.78,1.59-17.41,4.85-24.28,10.09-1.23.94-2.62,3.44-4.58,1.42-2.18-2.24-4.11-.67-5.9,0-21.31,8.52-42.53,17.22-63.87,25.66-2.46,1-2.57,1.82-1.73,3.91,4.81,12,11.83,22.37,23.18,29.11,3,1.77,3.83,3.22,2.51,6.61-2.49,6.4-3.48,13.17-4.17,21.49A346.26,346.26,0,0,0,768.63,627.31ZM234.82,244c10-6.85,20.7-11.51,33-11.28s23,5.41,32.06,13.3c4.82,4.18,8.72,5.64,15,2.67,7.61-3.6,7.91-2.91,7.75-11.51a53.26,53.26,0,0,1,.57-5.67c1.38,2.52,2.43,4.2,3.24,6,1.75,3.87,4,5.5,8.27,3.06,3.28-1.86,7-3,11.11-4.71-2-1-3.27-1.74-4.6-2.38-9.28-4.5-19.41-6.95-28.45-12C296,212,284.21,199.55,286.13,178.56c.3-3.31-.88-3.34-3.32-1.77a347.4,347.4,0,0,0-44.54,33.7c-.56.5-1.39,1-.52,2.18.69-.11,1.5-.19,2.28-.38a100.92,100.92,0,0,1,32.7-2.55c10.26.85,19.36,4.67,26.39,12.53,6,6.74,9.91,18.46,8.23,24.94A44,44,0,0,0,292.49,234c-12.17-6.64-25.32-8.67-39-7.84-10.64.65-21,3.14-31.59,4.13a11,11,0,0,0-8,4.16c-5.47,6.49-11.09,12.85-16.41,19.46-3.47,4.31-7.19,8.5-9.88,13.57,5.64,2.22,10.87.52,16-.45,12.36-2.35,23.56-7.95,35-12.91,15.91-6.88,31.32-7,45.51,4.5,1.15.94,2.62,3,4.13.85s-1.27-2.71-2.26-3.42C270.58,244.94,253.42,241.5,234.82,244ZM659.91,120.44c-1.27,14.42-2.48,28.15-3.71,41.88a2.66,2.66,0,0,0,1.39,2.89c6.28,3.67,12.53,7.39,20.34,12,0-12.3.11-23.22-.06-34.15-.06-3.57.48-5.14,4.65-4.18,8.61,2,15.87-.51,20.92-8,5.19-7.69,5.85-15.73,1.1-24-3.34-5.78-8.2-10-13.81-13.43-9.25-5.6-18.64-11-27.9-16.55-2.07-1.24-3.33-1.44-4.74,1q-18.24,31.26-36.74,62.35c-1.52,2.55-.57,3.36,1.48,4.48a123.17,123.17,0,0,1,11.57,6.87c2.94,2.07,4.29,1.52,6-1.5,9.4-16.28,19-32.44,28.58-48.62,4.7-8,4.73-8,12.18-2.31s8.71,12.07,3.72,20c-4.52,7.17-10.74,8.69-19,4.57C664.18,122.89,662.48,121.87,659.91,120.44ZM618.76,790.72C629,796.51,638.42,802,648,807.2c3.31,1.79,4.23,2.81,1.33,6.2-5.35,6.25-6.94,13.54-3.06,21.32s10.05,12.66,19.18,13a31,31,0,0,0,16.77-4c10.52-6.06,20.86-12.41,31.34-18.54,2.2-1.3,2.54-2.33,1.12-4.65q-18.65-30.4-37-61c-1.47-2.44-2.59-3.38-5.29-1.44a93.47,93.47,0,0,1-11.48,7c-3.3,1.7-3,3.2-1.25,6.08,9.71,15.69,19.2,31.53,28.72,47.35,5.27,8.75,5.24,8.78-4.33,12.84-7.54,3.21-13.44,1.23-17.83-6s-3.37-13.18,3.23-18.41c2.11-1.67,4.37-3.16,6.86-4.95-11.79-7.72-23.06-15.08-34.32-22.48-1.13-.74-2.21-1.63-3.61-.77C632,782.57,625.72,786.46,618.76,790.72ZM312.49,142.52l-33.41-19c.71-1,1.13-1.73,1.67-2.34,6.29-7.2,8.29-15,3.52-23.85S271.91,84.8,262,85.62a34.49,34.49,0,0,0-14.61,4.69c-10.05,5.88-19.93,12.06-30,18-2.2,1.29-2.19,2.48-1,4.36q18.84,30.88,37.59,61.81c1.23,2,2.2,2.46,4.26,1.11,3.9-2.55,7.88-5,12-7.2,2.94-1.58,3.48-3,1.56-6-9.66-15.54-19.05-31.25-28.56-46.88-5.65-9.28-5.31-10.25,5.14-14,7.17-2.58,13-.16,17.06,7.14,3.81,6.79,2.88,12.48-3,17.28-2.28,1.86-4.79,3.43-7.57,5.4,11.83,7.72,23.26,15.15,34.64,22.64a3.35,3.35,0,0,0,4.1.15C299.58,150.29,305.69,146.64,312.49,142.52Zm-58.19,614c-.16,1.87-.3,3-.33,4.09-.24,9.82-.58,19.64-.62,29.46,0,3.49-.41,5.44-4.66,4.1a19.11,19.11,0,0,0-6.93-.42c-9.31.67-20.64,12.71-19.14,21.57s6,16.57,13.92,21.52c10.57,6.63,21.34,12.93,32,19.46,2.25,1.38,3.34.9,4.64-1.32q18.15-31,36.53-61.91c1.25-2.1,1.28-3.38-1.17-4.64a77.28,77.28,0,0,1-10.7-6.38c-3.77-2.79-5.58-1.77-7.77,2-9.86,17.16-20,34.17-30.1,51.2-.8,1.35-1.16,4-3.86,2.37-3.41-2.06-7-3.89-9.62-7-4.38-5.26-4.32-10.62.24-17.38,3.79-5.62,8.91-7.52,15.12-5.26,3.08,1.12,5.95,2.77,9,4.23a5.41,5.41,0,0,0,.55-1.35q1.77-20.26,3.5-40.53a2.37,2.37,0,0,0-1.37-2.41ZM857.05,283.64c.12-23.6-18.61-43.8-40.72-43.88-22.94-.09-42.29,18-42.43,39.64-.16,24.1,18.29,44.16,40.8,44.37C837.9,324,856.93,306,857.05,283.64ZM157.27,653.09c0-23.74-18.61-43.6-40.92-43.68-23.29-.08-42.28,18-42.24,40.27,0,23.65,18.79,43.68,40.9,43.71C138.15,693.43,157.28,675.18,157.27,653.09ZM430.54,54.85c2.47,1.06,3,2.72,4,4,10.43,14.63,21.06,29.13,31.1,44,3.18,4.7,6.4,6.45,12.07,6.12,4.59-.26,5.43-1.63,5.23-5.82-1-21.61-1.78-43.24-2.68-64.86-.34-8.19-.4-8-8.23-7.83-3.22.08-3.85,1.24-3.68,4.17.61,10.14,1,20.28,1.41,30.42,0,1.32.67,2.83-.9,4.37-5.33-7.55-10.44-14.9-15.69-22.16-3.69-5.11-6-12.27-11.33-14.84-5.52-2.66-12.74,0-19.21-.07-3.9,0-4.65,1.4-4.49,5,1,22.94,2.11,45.89,2.69,68.85.19,7.51,5.21,3.91,8.36,4.44,4.22.71,3.25-2.42,3.16-4.85C431.71,89,431.14,72.24,430.54,54.85Zm70,823-1.12.3c-1.36-1.83-2.77-3.62-4.08-5.48-9.83-13.85-20-27.49-29.3-41.68-3.75-5.7-7.88-7.56-14.28-6.66-2.68.37-3.84.86-3.61,3.76.4,5.14.55,10.31.75,15.47Q450,871.29,451.08,899c.05,1.26-.48,3.49.78,3.61a26.75,26.75,0,0,0,9.87-.46c2.14-.63.83-3.55.85-5.43.07-10.84,0-21.7,0-32.29-.46-.17,0-.16.12.06,5.2,7.33,10.33,14.72,15.56,22,3.56,5,6.28,11.71,11.16,14.27,5.14,2.7,12.37.07,18.69.08,3.89,0,5-1.2,4.82-5.14-1.06-22.13-1.83-44.27-2.72-66.41-.28-7-.3-6.87-7.4-6.88-3.46,0-4.41.83-4.22,4.54C499.5,843.93,500,860.9,500.55,877.86Zm-305-743.16a31.3,31.3,0,0,0-19.72,7.83c-6.68,5.74-13.09,11.79-19.52,17.82-7.57,7.1-7.53,7.15-.69,14.6.56.61,1.12,1.23,1.69,1.84q21.3,22.78,42.58,45.59c1.81,2,3,2.43,5.1.26,3.45-3.6,7.16-6.95,10.9-10.25,1.82-1.61,1.65-2.68,0-4.34-5.56-5.73-10.83-11.75-16.5-17.38-2.69-2.68-3-4.28.08-7,5.1-4.49,10.6-8.67,14.39-14.46,4.5-6.88,5.93-14.22,1.63-21.65C211.09,139.92,204.45,135.31,195.54,134.7ZM735.39,798.5a30.22,30.22,0,0,0,19.53-7.59c8.64-7.54,16.91-15.5,25.44-23.17,1.91-1.72,1.46-2.79-.06-4.4q-24.81-26.34-49.47-52.8c-1.61-1.73-2.59-2-4.34-.23-3.51,3.53-7.15,7-10.94,10.21-2.27,1.93-1.85,3.1.05,5,5.71,5.81,11.08,12,16.79,17.77,2.16,2.19,2,3.4-.15,5.56-5,4.87-10.78,8.91-14.76,14.79-4.63,6.84-6.1,14.12-2.05,21.6C719.75,793.26,726.58,797.83,735.39,798.5Zm71.42-592.11.22,0a47.08,47.08,0,0,0-.75-6.42c-4.33-17-15.14-28.08-31.84-32.49-16.38-4.33-30.19,1.45-41.23,13.83s-12.9,29.13-5.33,44.22c8,16,23.16,25.24,39.32,24,6.64-.52,6.35-.5,5.86-6.85-.31-4.14-1.39-5.73-5.71-4.33a20.84,20.84,0,0,1-6.44.48c-13.9-.11-23.33-11.83-20-25.29s13.27-21.61,25-27.58c7.69-3.92,15.73-4.54,22.92,1.6,7.5,6.42,9,14.62,5.89,23.56-1.17,3.43-.64,4.46,2.77,5.24,8.47,1.95,8.84,1.81,9.38-6.91C806.87,208.39,806.81,207.39,806.81,206.39ZM124.25,726.61c-.12,10.63,4.52,19.19,11.6,26.71,13.43,14.27,33.43,17.83,49.62,8.8,17.81-9.93,25.87-28,20.86-46.73-5.38-20.13-25.66-34.29-44.51-31.59-6.84,1-3.4,5.25-3.5,8.41-.14,4.17,2.5,3.11,5.08,2.71a41.15,41.15,0,0,1,8.45-.41c12.59.65,21.15,11.86,18.66,24.27-2.76,13.74-19.41,29.25-33.21,31.07-7.23,1-13.07-1.32-17.67-7-5.39-6.62-5.49-13.92-3-21.67.33-1.05,2.13-2.38-.29-3.67-7.7-4.1-11.61-2.06-12.06,6.56C124.22,724.94,124.25,725.77,124.25,726.61ZM79.91,289c-1.38-2.88-4.83-2.57-7.26-3.91s-2.77.9-3.33,2.33c-5.15,13.15-10.14,26.36-15.42,39.46-1.39,3.44.6,3.88,2.9,4.77,21.69,8.38,43.39,16.74,65,25.3,3.12,1.24,4.52,1.06,5.78-2.31q7.47-20.08,15.5-40c1.3-3.19.2-4.35-2.49-4.77-2.48-.38-5.44-4.64-7.41,1-2.37,6.73-5.22,13.29-7.66,20-1,2.66-2.11,3.23-4.76,2.08-5.34-2.3-10.8-4.3-16.25-6.33-2.14-.79-2.73-1.75-1.75-4,2.21-5.19,3.82-10.66,6.21-15.76,1.89-4,1.38-5.71-3.09-7.43-4.18-1.6-5.61-.74-6.58,3.13a41.42,41.42,0,0,1-2.13,5.57c-1.76,4.3-2.44,10.59-5.62,12.34-3.65,2-8.7-2.46-13.17-4-8-2.84-8-3-4.76-11.18C75.7,299.92,77.73,294.64,79.91,289ZM877.8,605.22c.55-2.61-1.09-2.78-2.23-3.23-22.46-8.76-44.94-17.45-67.36-26.28-2.29-.9-3.23-.41-4.05,1.71q-8,20.72-16.09,41.36c-2,5.18,2.88,4,4.83,5.3s4,1.78,5.19-1.65c2.37-6.91,5.28-13.64,7.83-20.5.8-2.16,1.68-2.86,4-1.88,5.51,2.32,11.12,4.44,16.73,6.51,2.16.8,2.77,1.71,1.79,4.05-2.46,5.82-4.42,11.84-6.92,17.64-1.76,4.08,1.17,4.38,3.61,5.27s4.78,2.91,6.26-1.38c2-5.81,4.53-11.43,6.59-17.23,1-2.72,2.36-3.14,4.86-2.11,4.91,2,9.85,4,14.85,5.8,2.53.91,2.81,2.19,1.84,4.53-2.53,6.14-4.68,12.45-7.32,18.55-2.13,4.91,2.11,4.4,4.34,5.61,2.41,1.3,4.24,1.87,5.58-1.79,4.78-12.94,9.94-25.74,15-38.6C877.41,606.13,877.74,605.37,877.8,605.22ZM346.21,815.92c-.24.7-.52,1.48-.79,2.26-1.78,5.19-3.72,10.33-5.27,15.59-.91,3.11-2.45,3.38-5.14,2.36-5.12-2-10.49-3.35-15.45-5.62-4.71-2.16-5.73.34-7.24,3.92-1.73,4.1.24,5.08,3.5,6.1,5.24,1.62,10.33,3.73,15.57,5.32,3,.91,4,2,2.71,5.23a131.77,131.77,0,0,0-4.9,14.13c-.95,3.24-2.49,3.54-5.39,2.42-6.05-2.33-12.3-4.13-18.3-6.56-4.35-1.75-4.32,1.68-5.11,3.89s-2.86,4.75,1.54,6.2c13.42,4.42,26.74,9.11,40.05,13.86,2.51.89,3.37.39,4.23-2.11q11.68-34,23.67-67.8c.82-2.32.66-3.57-1.89-4.43-13.86-4.7-27.72-9.37-41.46-14.38-4.34-1.59-4.28,1.41-5.08,3.76s-2.88,5.07,1.79,6.42c6.7,1.94,13.22,4.47,19.8,6.77C344.38,813.72,346.14,813.74,346.21,815.92ZM632,64.54c.3-1.91-1.44-1.9-2.57-2.29-13.33-4.67-26.7-9.22-40-14-2.85-1-3.79,0-4.65,2.52q-11.6,33.72-23.42,67.35c-1,2.81-.17,3.66,2.34,4.51,13.54,4.58,27.09,9.14,40.5,14.11,4.24,1.57,4.79-.8,5.66-3.61.81-2.62,2.53-5.17-2-6.48-6.54-1.88-12.88-4.46-19.36-6.54-2.87-.92-4.21-1.8-2.74-5.22a146.6,146.6,0,0,0,5.2-15.08c.92-2.95,2.22-4,5.37-2.71,4.45,1.83,9.06,3.31,13.64,4.8,8,2.6,6,3.87,9.28-4.55,1.08-2.8-.13-3.39-2.31-4.12-6-2-11.88-4.31-17.9-6.2-2.54-.8-3.07-1.82-2.14-4.27,1.89-5,3.72-10,5.2-15.07.93-3.19,2.47-3.22,5.12-2.21,5.28,2,10.65,3.77,16,5.62S632.12,70.34,632,64.54ZM611,864.27c.29,2.18-1.57,2.19-2.87,2.68-6.08,2.25-12.07,4.83-18.29,6.57-5.43,1.53-2.49,4.38-1.83,7.06.74,3,1.77,4.41,5.45,3,12.72-4.91,25.56-9.51,38.44-14,3.1-1.07,3.63-2.19,2.49-5.27q-12.27-33.23-24.16-66.59c-.9-2.49-1.64-3.41-4.57-2.3q-20.29,7.67-40.8,14.75c-3.58,1.23-3.33,2.89-2,5.48s.75,6.7,5.95,4.44c6.39-2.76,13.1-4.81,19.6-7.34,2.52-1,3.84-.63,4.74,2.12,1.81,5.53,3.76,11,6,16.4,1.11,2.71-.15,3.46-2.25,4.2-6,2.09-11.84,4.42-17.86,6.35-5,1.61-1.64,4.37-1.08,6.61s.9,5,4.85,3.32c5.8-2.48,11.84-4.39,17.8-6.49,1.14-.4,2.69-1.6,3.43.27C606.4,851.73,608.64,858,611,864.27ZM344.72,56.8c0-4.18-3.33-8.26-6-7.3-13.29,4.76-26.54,9.62-39.85,14.32-2.68.95-3.1,2.12-2.12,4.78q12.25,33.21,24.18,66.53c1.06,3,2.1,3.73,5.3,2.52,13.2-5,26.43-10,39.85-14.4,5.41-1.78,2.44-4.48,1.85-7.14-.68-3.12-2-4.43-5.51-3-6.29,2.6-12.82,4.6-19.14,7.13-3.12,1.25-4.38.41-5.34-2.64-1.59-5.07-3.44-10.07-5.46-15-1.18-2.86-.44-4.17,2.4-5.11,5.84-1.93,11.55-4.25,17.39-6.15,4.94-1.61,1.6-4.42,1.09-6.67s-1-4.93-4.87-3.25c-5.63,2.44-11.57,4.13-17.26,6.44-2.9,1.18-4.08.46-5-2.42-1.54-4.91-3.35-9.74-5.25-14.53-1-2.47-.9-3.75,2.06-4.7,6.48-2.08,12.82-4.58,19.19-7C343.33,58.83,345.1,58.83,344.72,56.8ZM811.55,541c-.12,10.15,3,17.75,8.42,22.47,10.49,9.13,24.62,8.16,33.68-2.4,4.55-5.3,8.69-11,13.43-16.08,3.61-3.91,8-4.36,11.7-1.69s4.84,6.43,3.52,11a13.9,13.9,0,0,1-9.67,9.9c-2.89.9-4.2,2-2.3,4.71,1.64,2.35.92,7.63,6.72,5,10.86-4.85,17.76-17.16,16.23-30-1.26-10.54-6.62-18-16.87-21.39s-18.6-.35-25.38,7.74c-3,3.57-6,7.12-9,10.7a23.31,23.31,0,0,1-5.57,5,8.69,8.69,0,0,1-10.29-.24c-3.12-2.21-4.25-5.43-3.79-9.19.75-6.06,4.72-9.67,10.06-11.21,4.15-1.2,4.64-2.79,2.7-6.14a9,9,0,0,1-1-2.8c-.82-4.3-3.07-4.27-6.37-2.48C816.24,520.25,812,530.5,811.55,541ZM38,386.2c-.07,11.14,5.75,20.15,15.47,24,10.24,4,18.74,1.75,26.79-7.3,2.77-3.1,5.24-6.47,8-9.57a38.7,38.7,0,0,1,6.12-5.82c3.41-2.44,7.33-2.68,10.72-.11s4.64,6.3,3.58,10.67a12.77,12.77,0,0,1-9.32,9.55c-4.49,1.3-5,3.31-3.08,7a10.46,10.46,0,0,1,1.07,2.78c.71,3.4,2.39,3.69,5.35,2.28,11.78-5.61,16.18-15.78,17.18-27.84s-5.7-22.57-16.2-26.65-19-1.36-27.61,8.89c-4.18,5-7.63,10.53-12.54,14.87-3.23,2.86-6.84,3.46-10.56,1.29s-4.94-5.63-4.27-9.82c1-5.87,4.52-9.59,9.94-11.4,2.71-.9,4.41-1.66,2.32-4.6-1.67-2.35-.74-7.71-6.66-5.1C44.29,363.69,38.1,373.55,38,386.2Zm524.46-24.09c-8.26-4.47-16.86-7.06-26.21-6.1-13.89,1.42-24.37,9-33.69,18.73-13,13.55-27.39,25.17-44.23,33.78-21.66,11.05-42.62,11.53-63.15-2.54-1.4-1-2.81-2.18-4.9-.81,4.68,5.68,9.21,11.2,14.67,15.86,8.4,7.16,18.15,10.5,29.09,9.4,11.39-1.15,22-5.08,32-10.54,13.73-7.47,25.38-17.7,36.59-28.38C519.51,375.42,538.48,364,562.48,362.11Zm-51.3-252.25c-.29,1.85.39,2.72,2.35,2.94,3,.34,5.89,1.13,8.86,1.43,12.3,1.23,9.41,4.33,11.55-8.4,3-17.7,5.67-35.45,8.33-53.2.52-3.43,1.78-4.38,5.21-3.55,4.18,1,8.59,1.14,12.78,2.15,5.17,1.24,3.73-2.93,4.3-5.09s1.62-4.81-2.59-5.43C543.39,38,524.82,35.1,506.3,31.94c-4.45-.76-4.51,1.8-4.91,4.58s-1.32,5.69,3.24,6.09,8.85,1.49,13.31,1.92c2.63.26,3.45,1.17,3,3.77-1.54,9-3,18-4.39,27.07C514.74,86.86,513,98.36,511.18,109.86Zm-145.07,779c-.35,1.84,0,3.17,2.57,3.56q28.36,4.32,56.7,8.92c5,.82,3.65-3.13,4.35-5.36.78-2.51.87-4.93-2.94-5.33-4.29-.44-8.53-1.59-12.83-1.82-3.76-.21-4.27-1.82-3.74-5.06C413,866.88,415.64,850,418.31,833c.59-3.77,2.65-8.37,1.22-11.13-1.68-3.27-7.12-2.06-10.9-2.86-9.94-2.1-10-2-11.48,7.83-.34,2.13-.72,4.26-1,6.4-2.41,15.45-4.94,30.89-7.14,46.37-.62,4.36-2.3,5.51-6.45,4.31a63.37,63.37,0,0,0-9.36-1.49C367,881.66,366.43,882.18,366.11,888.88Zm19.76-770.23c5.68-1.19,11.36-2.41,17.06-3.56,2.52-.51,1.93-2.15,1.59-3.81q-7.27-35.36-14.47-70.74c-.43-2.14-1.16-2.8-3.3-2.32-5.34,1.2-10.7,2.33-16.08,3.32-2.11.39-2.74,1.23-2.3,3.36q7.39,35.32,14.64,70.7C383.36,117.28,383.35,119.07,385.87,118.65ZM545.54,814.48c-6,1.28-12,2.54-18,3.86-2.08.47-1.19,1.94-.93,3.18,4.81,23.41,9.69,46.81,14.34,70.26.63,3.19,1.73,3.7,4.62,2.94a79.39,79.39,0,0,1,11.71-2.27c4.92-.52,6.76-2.48,4.79-7.37a31.57,31.57,0,0,1-1.13-5.35l-12.75-61.94C547.87,816.24,548.24,814.17,545.54,814.48ZM613,299.77a2.64,2.64,0,0,0-1.41-2.4c-13.38-9.58-28.56-14.72-44.53-17.67-5.23-1-10.38-.18-13.69,4.9A14.32,14.32,0,0,0,552,298.84c2.29,5.18,6.61,7.68,12.23,8,9.37.54,18.55-1,27.7-2.62C599.05,303,606.24,302,613,299.77Zm-58.84,419.5c.07-5.65-1.47-7.56-4.54-6.34-15.06,6-30.09,12-45.13,18-2.32.93-2.89,2.09-1.39,4.48,5.47,8.72,15.35,12.06,25.26,7.43A21.62,21.62,0,0,1,541.6,741c7,1.08,12.08-3,12.09-9.81C553.7,726.88,552.72,722.61,554.17,719.27ZM176.55,284.32a273.56,273.56,0,0,0,26.69,7.28c2.71.6,5.25-.2,7.76-1.21,16-6.4,31.94-12.75,47.88-19.19,4.5-1.82,8.9-3.9,13.35-5.86l-.42-1.29c-11.31-1.76-22.09-.39-31.87,6.32a96.08,96.08,0,0,1-18.14,10.34c-12.36,5-24.81,6.85-36.58-1.28-3.66-2.52-5.56-2.48-7.29,1.54C177.48,282,176.43,282.78,176.55,284.32Zm422.1-1.71a13.55,13.55,0,0,0-4.55-7.32c-9.45-8.7-20.88-12-33.42-11.41a15.72,15.72,0,0,0-10.36,4.39c-1.56,1.52-3,3.45-2.2,5.72.87,2.45,3.32,1.86,5.21,1.64,3-.34,5.86-1.12,8.81-1.53,9.54-1.35,18.89-1.08,27.67,3.56C592.65,279.17,595,281.58,598.65,282.61Zm8-39.6c-6.72,2.68-13.58,5-20,8.17-2.73,1.33-8.08.44-7.74,4.73.25,3,3.59,5.79,6.28,8.07.88.74,1.85,1.39,2.79,2.08a3.57,3.57,0,0,0,3.73.48C599.82,263.25,607.9,250.26,606.64,243Zm54.1,19.51c-14.33,13.11-30,22.31-50.14,22.25C626.31,297,655.39,284,660.74,262.52Zm-427,495.86a9.4,9.4,0,1,0-9.47-9.66A10,10,0,0,0,233.74,758.38Zm473.07-573.9a9.71,9.71,0,0,0-9.42-9.62,9.4,9.4,0,1,0,9.42,9.62ZM162.32,309.72l22.22-8.85C170.78,294.84,166,296.77,162.32,309.72Z"/><path class="cls-1" d="M618.25,384.81l-.67,1.17c-.57-.62-.44-1.12.23-1.55Z"/><path class="cls-1" d="M371.14,794.48l1.16.51c-.11.1-.28.31-.32.28-.35-.18-.66-.41-1-.62Z"/><path class="cls-1" d="M423.41,239l-1.07.39c.17-.32.33-.65.49-1C423,238.62,423.22,238.81,423.41,239Z"/><path class="cls-1" d="M379,715.51c6.72-2.28,12-4.23,17.38-5.82,2.81-.82,4-2.06,3.85-5.16a87,87,0,0,1,.86-17.65c3.4,4.57,7,9,10.14,13.77,1.81,2.74,3.57,3.14,6.54,2,5.22-2,10.61-3.53,17.33-5.71-4.2,5.95-7.48,10.83-11,15.51-1.55,2-1.63,3.52,0,5.59,3.65,4.7,7.05,9.6,11.28,15.42-6.73-2.08-12.4-3.68-18-5.61-2.68-.94-4.22-.33-5.77,2a89.7,89.7,0,0,1-11.3,13.88c0-5.83-.13-11.66.06-17.48.1-2.78-.7-4.1-3.53-4.88C391.32,719.82,385.91,717.8,379,715.51Z"/><path class="cls-1" d="M744.42,331.36c-3.14,4.47-6.12,9.07-9.48,13.37-2,2.5-2.13,4.3-.06,6.85,3.55,4.37,6.69,9.06,10.79,14.7-6.33-1.9-11.62-3.1-16.6-5.1-3.87-1.56-5.89-.56-8,2.77a67.32,67.32,0,0,1-10.28,12.61c0-5.88-.12-11.76.05-17.64.07-2.6-.74-3.81-3.34-4.55-5.69-1.62-11.27-3.66-18.13-5.95,6.76-2.27,12.26-4.22,17.83-5.93,2.62-.8,3.69-2.08,3.57-5-.25-5.77-.07-11.55-.07-18.66,3.66,4.86,6.92,8.43,9.27,12.52,2.8,4.84,6,5.54,10.88,3.32,4.16-1.88,8.72-2.9,13.1-4.3Z"/><path class="cls-1" d="M406.16,686.89a126.35,126.35,0,0,1,4.8-29.55c8.21-29.2,22.48-54.94,43.81-76.67,13.57-13.82,30.81-21.26,48.53-27.71a222.6,222.6,0,0,1,80.24-13.31c1.37,0,3-.59,4.45,1.19-2,1.35-4.18.72-6.13.75-35.38.62-69.23,7.53-101.16,23.39-18.74,9.31-32.24,23.87-43.54,40.78-15.46,23.14-25.84,48.3-28.41,76.3a13.83,13.83,0,0,1-.61,2.91C408,685.34,407.53,685.59,406.16,686.89Z"/><path class="cls-1" d="M608.11,564.74c0-1.81,0-3.63,0-5.44-.26-10-.26-10-9.92-13.11-1.73-.56-3.44-1.19-5.95-2.05,4.82-1.67,8.9-3.22,13.07-4.45,2.16-.63,2.86-1.7,2.78-3.89-.15-4.24,0-8.49,0-14,3.23,4.32,5.84,7.47,8.06,10.87,1.47,2.23,3,2.7,5.37,1.72s5-1.74,7.55-2.58c1-.32,2.12-.66,2.83.13s.1,2-.63,2.6c-8,6.93-5.76,13.4.76,19.77a22.4,22.4,0,0,1,2.19,3.24c-4.34-1.34-8-2.25-11.57-3.64-3.1-1.23-5.09-1-6.89,2.18s-4.4,6.1-6.64,9.12Z"/><path class="cls-1" d="M437.82,330.17c-6.25.06-12.32.65-17.91,3.71A16.39,16.39,0,0,0,411.5,352c1.3,6.33,3.05,12.55,2.63,19.17-.6,9.44-10.77,15.35-17.21,15.13-4.64-.15-7.8-4.69-11-8-1.12-1.13.54-2.08,1.25-2.83,4.94-5.3,6.45-11.84,6.94-18.77.41-5.79.57-11.63,2.21-17.26,1.9-6.55,6.07-11,12.73-12.81A36.09,36.09,0,0,1,437.82,330.17Z"/><path class="cls-1" d="M457.31,329.36c.54.24.74.55.23,1l-.59-.63Z"/><path class="cls-1" d="M825.68,259.32c9.47-.15,14.68,2.12,17.77,8.15s1.8,11.87-2.29,16.75a55.6,55.6,0,0,1-38.28,20.08c-6.23.62-11.76-1.71-15.06-7.75s-2.18-11.8,1.8-16.78A56.13,56.13,0,0,1,825.68,259.32Z"/><path class="cls-1" d="M105.55,673.84c-9.29.16-14.7-2-17.84-8.31s-1.5-12.17,2.75-17.12c9.85-11.47,22.59-17.91,37.5-19.59,6.48-.73,12.14,1.72,15.5,7.87s2.08,11.84-1.93,16.78A57.13,57.13,0,0,1,105.55,673.84Z"/><path class="cls-1" d="M185.71,151.94a15.59,15.59,0,0,1,12.93,8.9c2.53,5.1.23,9.36-3.1,13.18-5.59,6.41-5.62,6.39-11.27.36-3.76-4-7.44-8.08-11.31-12-1.6-1.62-1.85-2.66-.06-4.39C176.51,154.51,180.58,152.22,185.71,151.94Z"/><path class="cls-1" d="M745.43,781.27a15.14,15.14,0,0,1-12.78-8.59c-2.52-4.95-.67-9.34,2.71-13.26,5.73-6.69,5.74-6.7,11.6-.48,3.76,4,7.4,8.11,11.27,12,1.74,1.74,1.51,2.72-.17,4.36A19.59,19.59,0,0,1,745.43,781.27Z"/></g></g></svg>